<?xml version="1.0" ?><svg xmlns="http://www.w3.org/2000/svg" xmlns:xlink="http://www.w3.org/1999/xlink" version="1.1" viewBox="0 0 512 512" style="enable-background:new 0 0 512 512;" xml:space="preserve"><g id="_x31_0_x2C__Eye_Tracking_x2C__Target_x2C__Behavior_x2C__Vision_x2C__Monitoring_x2C__Technology"><g><g><path style="fill:#FFFFFF;" d="M256,186c53.86,0,101.21,27.88,128.4,70c-27.19,42.12-74.54,70-128.4,70s-101.21-27.88-128.4-70     C154.79,213.88,202.14,186,256,186z"/><path style="fill:#9DCAFC;" d="M256,206l-50,50c0,27.61,22.39,50,50,50s50-22.39,50-50S283.61,206,256,206z"/><path style="fill:#9DCAFC;" d="M256,206c-27.61,0-50,22.39-50,50h50V206z"/><circle style="fill:#FFFFFF;" cx="256" cy="256" r="20"/><polygon style="fill:#FFFFFF;" points="371,126 371,181 351,181 351,146 316,146 316,126    "/><path style="fill:#9DCAFC;" d="M506,241v30h-25.51C473.1,383.31,383.31,473.1,271,480.49V506h-30v-25.51     C128.69,473.1,38.9,383.31,31.51,271H6v-30h25.51C38.9,128.69,128.69,38.9,241,31.51V6h30v25.51     C383.31,38.9,473.1,128.69,480.49,241H506z M426,241h24.43C443.15,145.26,366.74,68.85,271,61.57V86h-30V61.57     C145.26,68.85,68.85,145.26,61.57,241H86v30H61.57c7.28,95.74,83.69,172.15,179.43,179.43V426h30v24.43     c95.74-7.28,172.15-83.69,179.43-179.43H426V241z"/><polygon style="fill:#FFFFFF;" points="371,331 371,386 316,386 316,366 351,366 351,331    "/><polygon style="fill:#FFFFFF;" points="196,366 196,386 141,386 141,331 161,331 161,366    "/><polygon style="fill:#FFFFFF;" points="196,126 196,146 161,146 161,181 141,181 141,126    "/><path style="fill:#4269A7;" d="M506,236h-20.876C475.528,124.917,387.076,36.472,276,26.876V6c0-2.762-2.238-5-5-5h-30     c-2.762,0-5,2.238-5,5v20.876C124.917,36.472,36.472,124.925,26.876,236H6c-2.762,0-5,2.238-5,5v30c0,2.762,2.238,5,5,5h20.876     C36.472,387.083,124.925,475.528,236,485.124V506c0,2.762,2.238,5,5,5h30c2.762,0,5-2.238,5-5v-20.876     C387.083,475.528,475.528,387.076,485.124,276H506c2.762,0,5-2.238,5-5v-30C511,238.238,508.762,236,506,236z M501,266h-20.51     c-2.634,0-4.816,2.043-4.989,4.672c-7.214,109.559-95.271,197.615-204.829,204.829c-2.629,0.173-4.672,2.355-4.672,4.989V501h-20     v-20.51c0-2.634-2.043-4.816-4.672-4.989C131.77,468.287,43.713,380.23,36.499,270.672C36.326,268.043,34.144,266,31.51,266H11     v-20h20.51c2.634,0,4.816-2.043,4.989-4.672C43.713,131.77,131.77,43.713,241.328,36.499c2.629-0.173,4.672-2.355,4.672-4.989V11     h20v20.51c0,2.634,2.043,4.816,4.672,4.989c109.559,7.214,197.615,95.271,204.829,204.829c0.173,2.629,2.355,4.672,4.989,4.672     H501V266z"/><path style="fill:#4269A7;" d="M450.432,246c2.908,0,5.206-2.476,4.985-5.379c-7.476-98.267-85.958-176.576-184.038-184.038     c-2.907-0.219-5.379,2.081-5.379,4.985V81h-20V61.568c0-2.908-2.477-5.205-5.379-4.985     c-98.267,7.476-176.576,85.958-184.038,184.038c-0.22,2.899,2.075,5.379,4.985,5.379H81v20H61.568     c-2.908,0-5.206,2.476-4.985,5.379c7.476,98.267,85.958,176.576,184.038,184.038c2.876,0.223,5.379-2.057,5.379-4.985V431h20     v19.432c0,2.911,2.484,5.21,5.379,4.985c98.267-7.476,176.576-85.958,184.038-184.038c0.22-2.899-2.075-5.379-4.985-5.379H431     v-20H450.432z M426,276h18.959C435.663,364.355,364.355,435.663,276,444.959V426c0-2.762-2.238-5-5-5h-30c-2.762,0-5,2.238-5,5     v18.959C147.645,435.663,76.337,364.355,67.041,276H86c2.762,0,5-2.238,5-5v-30c0-2.762-2.238-5-5-5H67.041     C76.337,147.645,147.645,76.337,236,67.041V86c0,2.762,2.238,5,5,5h30c2.762,0,5-2.238,5-5V67.041     C364.355,76.337,435.663,147.645,444.959,236H426c-2.762,0-5,2.238-5,5v30C421,273.762,423.238,276,426,276z"/><path style="fill:#4269A7;" d="M316,151h30v30c0,2.762,2.238,5,5,5h20c2.762,0,5-2.238,5-5v-55c0-2.762-2.238-5-5-5h-55     c-2.762,0-5,2.238-5,5v20C311,148.762,313.238,151,316,151z M321,131h45v45h-10v-30c0-2.762-2.238-5-5-5h-30V131z"/><path style="fill:#4269A7;" d="M141,186h20c2.762,0,5-2.238,5-5v-30h30c2.762,0,5-2.238,5-5v-20c0-2.762-2.238-5-5-5h-55     c-2.762,0-5,2.238-5,5v55C136,183.762,138.238,186,141,186z M146,131h45v10h-30c-2.762,0-5,2.238-5,5v30h-10V131z"/><path style="fill:#4269A7;" d="M371,326h-20c-2.762,0-5,2.238-5,5v30h-30c-2.762,0-5,2.238-5,5v20c0,2.762,2.238,5,5,5h55     c2.762,0,5-2.238,5-5v-55C376,328.238,373.762,326,371,326z M366,381h-45v-10h30c2.762,0,5-2.238,5-5v-30h10V381z"/><path style="fill:#4269A7;" d="M196,361h-30v-30c0-2.762-2.238-5-5-5h-20c-2.762,0-5,2.238-5,5v55c0,2.762,2.238,5,5,5h55     c2.762,0,5-2.238,5-5v-20C201,363.238,198.762,361,196,361z M191,381h-45v-45h10v30c0,2.762,2.238,5,5,5h30V381z"/><path style="fill:#4269A7;" d="M123.402,253.288c-1.066,1.65-1.066,3.773,0,5.424c62.248,96.413,203.021,96.299,265.195,0     c1.066-1.65,1.066-3.773,0-5.424C326.35,156.875,185.577,156.989,123.402,253.288z M133.596,256     c58.588-86.597,186.156-86.692,244.809,0C319.816,342.597,192.248,342.692,133.596,256z"/><path style="fill:#4269A7;" d="M256,201c-30.327,0-55,24.673-55,55s24.673,55,55,55s55-24.673,55-55S286.327,201,256,201z      M256,241c8.271,0,15,6.729,15,15s-6.729,15-15,15s-15-6.729-15-15S247.729,241,256,241z M251,211.284v20.219     c-9.781,1.993-17.503,9.716-19.497,19.497h-20.219C213.598,230.175,230.175,213.598,251,211.284z M256,301     c-23.123,0-42.219-17.532-44.716-40h20.219c2.323,11.397,12.424,20,24.497,20c13.785,0,25-11.215,25-25     c0-12.073-8.603-22.174-20-24.497v-20.219c22.468,2.496,40,21.593,40,44.716C301,280.813,280.813,301,256,301z"/><path style="fill:#4269A7;" d="M351,251h-20c-2.762,0-5,2.238-5,5s2.238,5,5,5h20c2.762,0,5-2.238,5-5S353.762,251,351,251z"/><path style="fill:#4269A7;" d="M181,251h-20c-2.762,0-5,2.238-5,5s2.238,5,5,5h20c2.762,0,5-2.238,5-5S183.762,251,181,251z"/></g></g></g><g id="Layer_1"/></svg>